<?xml version="1.0" standalone="no"?>
<!DOCTYPE svg PUBLIC "-//W3C//DTD SVG 20010904//EN"
 "http://www.w3.org/TR/2001/REC-SVG-20010904/DTD/svg10.dtd">
<svg version="1.0" xmlns="http://www.w3.org/2000/svg"
 width="128.000000pt" height="128.000000pt" viewBox="0 0 128.000000 128.000000"
 preserveAspectRatio="xMidYMid meet">

<g transform="translate(0.000000,128.000000) scale(0.100000,-0.100000)"
fill="#000000" stroke="none">
<path d="M520 1198 c-36 -60 -18 -124 49 -177 48 -38 50 -55 16 -105 -27 -39
-22 -43 30 -22 43 18 69 66 61 112 -5 24 -23 47 -64 83 -54 47 -57 53 -57 96
0 25 -3 45 -8 45 -4 0 -16 -15 -27 -32z"/>
<path d="M453 1039 c-20 -20 -15 -45 13 -78 20 -24 24 -38 19 -58 -6 -25 -6
-26 17 -11 35 23 35 62 -1 94 -16 14 -31 35 -33 46 -2 15 -5 17 -15 7z"/>
<path d="M220 609 l0 -231 51 -64 51 -64 249 0 248 0 52 64 c44 55 56 64 91
69 88 12 168 104 168 194 0 105 -68 183 -182 207 -22 5 -28 12 -28 31 l0 25
-350 0 -350 0 0 -231z m328 66 c42 -47 51 -108 24 -168 -13 -29 -31 -51 -51
-61 -37 -20 -45 -20 -86 0 -41 19 -65 67 -65 129 0 82 43 135 111 135 30 0 43
-7 67 -35z m179 0 c46 -32 47 -123 2 -186 -32 -45 -112 -73 -147 -50 -22 13
18 68 69 94 46 24 65 60 50 100 -7 19 -9 18 -20 -16 -12 -34 -46 -66 -58 -53
-3 3 -9 27 -14 53 -8 40 -7 50 8 61 23 17 84 15 110 -3z m278 -38 c18 -26 19
-86 2 -108 -15 -20 -51 -39 -71 -39 -13 0 -16 15 -16 88 0 49 3 91 6 95 10 10
64 -14 79 -36z"/>
<path d="M471 670 c1 -8 4 -26 8 -40 5 -17 2 -37 -11 -62 -20 -41 -24 -83 -8
-93 6 -3 10 2 10 12 0 10 11 35 25 55 31 46 32 75 0 113 -14 18 -24 24 -24 15z"/>
<path d="M160 193 c0 -4 21 -38 47 -75 l46 -68 318 0 318 0 41 60 c22 33 43
66 46 75 5 13 -41 15 -405 15 -226 0 -411 -3 -411 -7z"/>
</g>
</svg>
