<?xml version="1.0" standalone="no"?>
<!DOCTYPE svg PUBLIC "-//W3C//DTD SVG 20010904//EN"
 "http://www.w3.org/TR/2001/REC-SVG-20010904/DTD/svg10.dtd">
<svg version="1.0" xmlns="http://www.w3.org/2000/svg"
 width="129.000000pt" height="129.000000pt" viewBox="0 0 129.000000 129.000000"
 preserveAspectRatio="xMidYMid meet">

<g transform="translate(0.000000,129.000000) scale(0.100000,-0.100000)"
fill="#000000" stroke="none">
<path d="M283 1055 c-58 -29 -131 -103 -162 -163 -88 -173 -55 -418 73 -547
60 -60 123 -86 203 -86 301 0 437 474 206 722 -92 99 -213 127 -320 74z m146
-109 c86 -108 108 -182 78 -266 -7 -19 -39 -72 -70 -118 -58 -85 -62 -99 -58
-187 l3 -50 -22 20 c-32 28 -60 93 -60 141 0 40 13 70 88 209 27 48 28 98 3
184 -44 153 -38 163 38 67z"/>
<path d="M870 1001 c-59 -19 -120 -51 -120 -63 0 -4 11 -42 25 -83 14 -42 28
-111 32 -155 3 -44 8 -80 9 -80 2 0 33 14 68 30 74 35 92 59 126 165 13 39 30
84 38 100 l16 30 7 -40 c4 -22 8 -78 8 -123 1 -139 -40 -195 -186 -251 -48
-19 -93 -38 -100 -43 -7 -6 -24 -35 -38 -65 -13 -30 -39 -73 -57 -95 -30 -38
-31 -41 -14 -54 10 -7 43 -19 73 -25 154 -35 347 79 433 255 22 44 45 108 51
141 45 249 -144 430 -371 356z"/>
</g>
</svg>
