<?xml version="1.0" standalone="no"?>
<!DOCTYPE svg PUBLIC "-//W3C//DTD SVG 20010904//EN"
 "http://www.w3.org/TR/2001/REC-SVG-20010904/DTD/svg10.dtd">
<svg version="1.0" xmlns="http://www.w3.org/2000/svg"
 width="127.000000pt" height="129.000000pt" viewBox="0 0 127.000000 129.000000"
 preserveAspectRatio="xMidYMid meet">

<g transform="translate(0.000000,129.000000) scale(0.100000,-0.100000)"
fill="#000000" stroke="none">
<path d="M370 1221 c0 -40 -1 -41 -34 -41 -39 0 -63 -19 -72 -58 -9 -36 -23
-52 -45 -52 -38 0 -59 -36 -59 -98 0 -98 -30 -92 463 -92 489 0 457 -6 457 91
0 64 -21 99 -59 99 -24 0 -37 17 -46 58 -8 39 -30 52 -86 52 -23 0 -47 6 -53
13 -7 9 -80 22 -206 36 -107 12 -210 25 -227 28 -33 5 -33 5 -33 -36z"/>
<path d="M210 783 c0 -10 25 -162 55 -337 45 -264 58 -323 75 -340 19 -20 33
-21 268 -24 153 -2 259 1 275 7 15 6 33 25 42 43 11 27 115 615 115 656 0 9
-96 12 -415 12 -389 0 -415 -1 -415 -17z m499 -167 c32 -22 48 -26 114 -26 90
0 84 14 60 -147 l-17 -113 -55 0 c-43 0 -63 -6 -93 -26 -66 -46 -155 -41 -197
10 -10 11 -31 16 -76 16 l-63 0 -11 98 c-7 53 -15 112 -18 130 l-5 32 78 0
c53 0 82 4 93 14 58 52 126 56 190 12z"/>
<path d="M517 550 c-72 -57 -39 -200 45 -200 82 0 112 144 41 200 -14 11 -33
20 -43 20 -10 0 -29 -9 -43 -20z m73 -69 c0 -14 -7 -35 -15 -45 -8 -11 -15
-28 -15 -38 0 -10 -4 -18 -9 -18 -18 0 -20 32 -5 62 11 21 14 45 11 72 l-6 41
20 -24 c10 -13 19 -35 19 -50z"/>
<path d="M672 542 c-9 -6 -11 -21 -6 -50 4 -23 9 -42 13 -42 15 1 31 18 46 50
l15 35 -3 -45 c-2 -41 -6 -47 -39 -65 -30 -16 -58 -50 -58 -70 0 -3 15 -5 34
-5 88 0 145 118 88 183 -16 18 -67 23 -90 9z"/>
</g>
</svg>
