<svg xmlns="http://www.w3.org/2000/svg" xmlns:xlink="http://www.w3.org/1999/xlink" viewBox="0,0,256,256" width="96px" height="96px"><g transform="translate(88.32,88.32) scale(0.31,0.31)"><g fill="none" fill-rule="nonzero" stroke="none" stroke-width="1" stroke-linecap="butt" stroke-linejoin="miter" stroke-miterlimit="10" stroke-dasharray="" stroke-dashoffset="0" font-family="none" font-weight="none" font-size="none" text-anchor="none" style="mix-blend-mode: normal"><g transform="translate(-251.25883,-36.27357) scale(5.33333,5.33333)"><path d="M7.705,4.043c-0.413,0.107 -0.705,0.464 -0.705,1.078c0,1.802 0,18.795 0,18.795c0,0 0,18.364 0,19.175c0,0.446 0.197,0.745 0.5,0.856l20.181,-20.064z" fill="#4db6ac"></path><path d="M33.237,18.36l-8.307,-4.796c0,0 -15.245,-8.803 -16.141,-9.32c-0.388,-0.224 -0.77,-0.283 -1.084,-0.201l19.977,19.84z" fill="#dce775"></path><path d="M8.417,43.802c0.532,-0.308 15.284,-8.825 24.865,-14.357l-5.601,-5.562l-20.181,20.064c0.248,0.091 0.566,0.057 0.917,-0.145z" fill="#d32f2f"></path><path d="M41.398,23.071c-0.796,-0.429 -8.1,-4.676 -8.1,-4.676l-0.061,-0.035l-5.556,5.523l5.601,5.562c4.432,-2.559 7.761,-4.48 8.059,-4.653c0.944,-0.544 0.853,-1.292 0.057,-1.721z" fill="#fbc02d"></path></g></g><g fill="#000000" fill-rule="nonzero" stroke="none" stroke-width="1" stroke-linecap="butt" stroke-linejoin="miter" stroke-miterlimit="10" stroke-dasharray="" stroke-dashoffset="0" font-family="none" font-weight="none" font-size="none" text-anchor="none" style="mix-blend-mode: normal"><g><path d="M67.835,96.25167v21.98c-1.21333,0.70667 -2.63667,1.39667 -4.27,2.07c-1.63333,0.66667 -3.36,1.27333 -5.18,1.82c-1.82667,0.54667 -3.65,0.99333 -5.47,1.34c-1.82667,0.35333 -3.54,0.53 -5.14,0.53v0c-5.12,0 -9.72667,-0.68667 -13.82,-2.06c-4.1,-1.38 -7.59,-3.49333 -10.47,-6.34c-2.88,-2.84667 -5.10333,-6.44667 -6.67,-10.8c-1.56667,-4.35333 -2.35,-9.53667 -2.35,-15.55v0c0,-6.27333 0.91,-11.61667 2.73,-16.03c1.82667,-4.42 4.26,-8.02 7.3,-10.8c3.04,-2.78667 6.49667,-4.80333 10.37,-6.05c3.87333,-1.24667 7.82333,-1.87 11.85,-1.87v0c4.22667,0 7.79667,0.27 10.71,0.81c2.91333,0.54667 5.45667,1.36333 7.63,2.45v0c0,0.96 -0.03333,2.14333 -0.1,3.55c-0.06,1.41333 -0.15333,2.88667 -0.28,4.42c-0.13333,1.53333 -0.29333,3.05333 -0.48,4.56c-0.19333,1.50667 -0.38667,2.83333 -0.58,3.98v0h-2.5l-4.99,-13.82c-0.7,-0.38667 -1.88333,-0.64333 -3.55,-0.77c-1.66667,-0.12667 -3.3,-0.19 -4.9,-0.19v0c-3.2,0 -6.24,0.59333 -9.12,1.78c-2.88,1.18 -5.39,3.00333 -7.53,5.47c-2.14667,2.46 -3.86,5.56333 -5.14,9.31c-1.28,3.74667 -1.92,8.14667 -1.92,13.2v0c0,4.54667 0.62333,8.64333 1.87,12.29c1.25333,3.64667 2.98333,6.76667 5.19,9.36c2.20667,2.59333 4.79667,4.59333 7.77,6c2.98,1.40667 6.19667,2.11 9.65,2.11v0c1.28,0 2.53,-0.12667 3.75,-0.38c1.21333,-0.26 2.33333,-0.56667 3.36,-0.92c1.02,-0.34667 1.86667,-0.71333 2.54,-1.1c0.67333,-0.38667 1.13667,-0.70667 1.39,-0.96v0v-19.39c-1.66,-0.12667 -3.24333,-0.41667 -4.75,-0.87c-1.50667,-0.44667 -2.99333,-0.92667 -4.46,-1.44v0v-2.78h23.52v2.78c-0.64,0.45333 -1.41,0.87 -2.31,1.25c-0.89333,0.38667 -2.11,0.74 -3.65,1.06zM79.355,98.84167v0c0,-4.03333 0.53,-7.6 1.59,-10.7c1.05333,-3.10667 2.57333,-5.73333 4.56,-7.88c1.98,-2.14 4.36333,-3.77 7.15,-4.89c2.78667,-1.12 5.87333,-1.68 9.26,-1.68v0c3.97333,0 7.4,0.60667 10.28,1.82c2.88,1.22 5.23,2.93333 7.05,5.14c1.82667,2.20667 3.17,4.84667 4.03,7.92c0.86667,3.07333 1.3,6.49667 1.3,10.27v0c0,8.06667 -2.04667,14.27333 -6.14,18.62c-4.1,4.35333 -9.60667,6.53 -16.52,6.53v0c-3.84,0 -7.16667,-0.59 -9.98,-1.77c-2.81333,-1.18667 -5.15,-2.88333 -7.01,-5.09c-1.85333,-2.20667 -3.24333,-4.86333 -4.17,-7.97c-0.93333,-3.10667 -1.4,-6.54667 -1.4,-10.32zM88.575,98.84167v0c0,2.88 0.27333,5.6 0.82,8.16c0.54,2.56 1.40333,4.78333 2.59,6.67c1.18,1.88667 2.73,3.37667 4.65,4.47c1.92,1.08667 4.22667,1.63 6.92,1.63v0c3.45333,0 6.28333,-1.69667 8.49,-5.09c2.20667,-3.39333 3.31,-8.67333 3.31,-15.84v0c0,-2.94667 -0.27,-5.68333 -0.81,-8.21c-0.54667,-2.52667 -1.39667,-4.73333 -2.55,-6.62c-1.14667,-1.88667 -2.61667,-3.37667 -4.41,-4.47c-1.79333,-1.08667 -3.93667,-1.63 -6.43,-1.63v0c-3.78,0 -6.82,1.69667 -9.12,5.09c-2.30667,3.39333 -3.46,8.67333 -3.46,15.84zM132.445,98.84167v0c0,-4.03333 0.53,-7.6 1.59,-10.7c1.05333,-3.10667 2.57333,-5.73333 4.56,-7.88c1.98,-2.14 4.36333,-3.77 7.15,-4.89c2.78,-1.12 5.86667,-1.68 9.26,-1.68v0c3.96667,0 7.39,0.60667 10.27,1.82c2.88,1.22 5.23333,2.93333 7.06,5.14c1.82667,2.20667 3.17,4.84667 4.03,7.92c0.86667,3.07333 1.3,6.49667 1.3,10.27v0c0,8.06667 -2.05,14.27333 -6.15,18.62c-4.09333,4.35333 -9.59667,6.53 -16.51,6.53v0c-3.84,0 -7.16667,-0.59 -9.98,-1.77c-2.82,-1.18667 -5.15667,-2.88333 -7.01,-5.09c-1.85333,-2.20667 -3.24667,-4.86333 -4.18,-7.97c-0.92667,-3.10667 -1.39,-6.54667 -1.39,-10.32zM141.665,98.84167v0c0,2.88 0.27,5.6 0.81,8.16c0.54667,2.56 1.41333,4.78333 2.6,6.67c1.18,1.88667 2.73,3.37667 4.65,4.47c1.92,1.08667 4.22333,1.63 6.91,1.63v0c3.46,0 6.29333,-1.69667 8.5,-5.09c2.20667,-3.39333 3.31,-8.67333 3.31,-15.84v0c0,-2.94667 -0.27,-5.68333 -0.81,-8.21c-0.54667,-2.52667 -1.39667,-4.73333 -2.55,-6.62c-1.15333,-1.88667 -2.62333,-3.37667 -4.41,-4.47c-1.79333,-1.08667 -3.94,-1.63 -6.44,-1.63v0c-3.77333,0 -6.81333,1.69667 -9.12,5.09c-2.3,3.39333 -3.45,8.67333 -3.45,15.84zM205.315,73.69167v0c3.45333,0 6.36333,0.33667 8.73,1.01c2.36667,0.66667 4.35,1.70667 5.95,3.12v0c3.78,-2.56 7.71667,-4.41667 11.81,-5.57v0c0.51333,0.7 0.88333,1.56333 1.11,2.59c0.22,1.02667 0.33,1.98667 0.33,2.88v0l-1.25,2.3h-10.08c1.6,2.30667 2.4,5.34667 2.4,9.12v0c0,4.61333 -1.61333,8.36 -4.84,11.24c-3.23333,2.88 -7.95333,4.32 -14.16,4.32v0c-1.22,0 -2.21333,-0.03333 -2.98,-0.1c-0.76667,-0.06667 -1.63,-0.16333 -2.59,-0.29v0c-0.32,0.58 -0.69,1.22 -1.11,1.92c-0.41333,0.70667 -0.62,1.44333 -0.62,2.21v0c0,1.28 0.73667,2.28667 2.21,3.02c1.47333,0.74 3.31333,1.39667 5.52,1.97c2.20667,0.58 4.60667,1.17333 7.2,1.78c2.59333,0.60667 5.01,1.43667 7.25,2.49c2.24,1.06 4.11,2.43667 5.61,4.13c1.50667,1.7 2.29,3.89333 2.35,6.58v0c0.06667,2.3 -0.46,4.38 -1.58,6.24c-1.12,1.85333 -2.67333,3.40333 -4.66,4.65c-1.98,1.25333 -4.36333,2.21333 -7.15,2.88c-2.78,0.67333 -5.83667,1.01 -9.17,1.01v0c-6.97333,0 -12.23667,-1.18333 -15.79,-3.55c-3.55333,-2.36667 -5.33,-5.34333 -5.33,-8.93v0c0,-1.72667 0.27333,-3.23 0.82,-4.51c0.54667,-1.28 1.33,-2.4 2.35,-3.36c1.02667,-0.96 2.30667,-1.80667 3.84,-2.54c1.54,-0.74 3.3,-1.43 5.28,-2.07v0c-1.40667,-0.64 -2.57333,-1.52 -3.5,-2.64c-0.92667,-1.12 -1.39,-2.48 -1.39,-4.08v0c0,-1.47333 0.62333,-2.93 1.87,-4.37c1.24667,-1.44 2.51,-2.57333 3.79,-3.4v0c-3.64667,-0.96 -6.44667,-2.78667 -8.4,-5.48c-1.95333,-2.68667 -2.93,-5.72667 -2.93,-9.12v0c0,-2.17333 0.41667,-4.20333 1.25,-6.09c0.83333,-1.88667 2.05,-3.53667 3.65,-4.95c1.6,-1.40667 3.58333,-2.49333 5.95,-3.26c2.36667,-0.76667 5.12,-1.15 8.26,-1.15zM219.515,130.62167v0c0,-2.05333 -0.68667,-3.68667 -2.06,-4.9c-1.37333,-1.21333 -3.08667,-2.20667 -5.14,-2.98c-2.04667,-0.76667 -4.25333,-1.40667 -6.62,-1.92c-2.36667,-0.50667 -4.57333,-1.08 -6.62,-1.72v0c-2.43333,1.46667 -4.03333,3.01667 -4.8,4.65c-0.77333,1.63333 -1.16,3.31333 -1.16,5.04v0c0,3.39333 1.21667,5.93667 3.65,7.63c2.43333,1.7 5.95333,2.55 10.56,2.55v0c2.36667,0 4.33667,-0.22333 5.91,-0.67c1.56667,-0.45333 2.81333,-1.04667 3.74,-1.78c0.92667,-0.73333 1.58333,-1.61333 1.97,-2.64c0.38,-1.02667 0.57,-2.11333 0.57,-3.26zM194.845,89.14167v0c0,1.54 0.17667,2.99667 0.53,4.37c0.35333,1.38 0.93,2.58 1.73,3.6c0.8,1.02667 1.87,1.84333 3.21,2.45c1.34667,0.60667 3.01333,0.91 5,0.91v0c3.70667,0 6.36,-1.08667 7.96,-3.26c1.6,-2.18 2.4,-4.87 2.4,-8.07v0c0,-3.45333 -0.78333,-6.18667 -2.35,-8.2c-1.56667,-2.02 -4.23667,-3.03 -8.01,-3.03v0c-3.90667,0 -6.62667,0.97667 -8.16,2.93c-1.54,1.95333 -2.31,4.72 -2.31,8.3zM257.345,120.44167v2.4h-21.31v-2.4c2.10667,-1.02667 4.21667,-1.79333 6.33,-2.3v0v-60.77l-7.29,-0.77v-2.5c1.66,-0.76667 3.74,-1.43667 6.24,-2.01c2.49333,-0.58 4.92333,-1.06 7.29,-1.44v0h2.4v67.49c2.11333,0.50667 4.22667,1.27333 6.34,2.3zM302.465,114.58167l1.34,1.54c-0.51333,1.08667 -1.31333,2.11 -2.4,3.07c-1.08667,0.96 -2.33333,1.79333 -3.74,2.5c-1.40667,0.7 -2.94333,1.26 -4.61,1.68c-1.66667,0.41333 -3.36333,0.62 -5.09,0.62v0c-3.77333,0 -7.1,-0.59 -9.98,-1.77c-2.88,-1.18667 -5.28,-2.88333 -7.2,-5.09c-1.92,-2.20667 -3.37667,-4.84667 -4.37,-7.92c-0.99333,-3.07333 -1.49,-6.53 -1.49,-10.37v0c0,-8.19333 1.89,-14.43333 5.67,-18.72c3.77333,-4.28667 9.11667,-6.43 16.03,-6.43v0c2.24,0 4.44667,0.30333 6.62,0.91c2.18,0.60667 4.11667,1.61333 5.81,3.02c1.69333,1.41333 3.07,3.28667 4.13,5.62c1.05333,2.33333 1.58,5.23 1.58,8.69v0c0,1.08667 -0.04667,2.19 -0.14,3.31c-0.1,1.12 -0.27667,2.32 -0.53,3.6v0h-29.95c0,2.68667 0.33667,5.2 1.01,7.54c0.66667,2.33333 1.67333,4.36333 3.02,6.09c1.34667,1.72667 3.04333,3.08667 5.09,4.08c2.04667,0.99333 4.44667,1.49 7.2,1.49v0c2.24,0 4.51,-0.32 6.81,-0.96c2.30667,-0.64 4.03667,-1.47333 5.19,-2.5zM286.235,77.91167v0c-3.64667,0 -6.43,1.23333 -8.35,3.7c-1.92,2.46 -3.07,6.79667 -3.45,13.01v0h21.12c0.06,-0.58 0.10667,-1.14 0.14,-1.68c0.03333,-0.54667 0.05,-1.07667 0.05,-1.59v0c0,-4.09333 -0.77,-7.35667 -2.31,-9.79c-1.53333,-2.43333 -3.93333,-3.65 -7.2,-3.65zM352.475,96.54167v21.21c1.73333,0.19333 3.36667,0.49667 4.9,0.91c1.53333,0.42 2.97333,0.88667 4.32,1.4v0v2.78h-26.3v-2.78c1.28,-0.64 2.59,-1.12 3.93,-1.44c1.34667,-0.32 2.66,-0.61 3.94,-0.87v0v-56.93c-1.47333,-0.25333 -2.85,-0.58667 -4.13,-1c-1.28,-0.42 -2.52667,-0.88667 -3.74,-1.4v0v-2.78h8.64c2.56,0 5.34333,-0.12667 8.35,-0.38c3.00667,-0.26 5.88667,-0.39 8.64,-0.39v0c3.13333,0 6.20333,0.33667 9.21,1.01c3.01333,0.67333 5.68667,1.81 8.02,3.41c2.33333,1.6 4.22,3.72667 5.66,6.38c1.44,2.66 2.16,5.97333 2.16,9.94v0c0,3.77333 -0.73333,7.00333 -2.2,9.69c-1.47333,2.69333 -3.44333,4.90333 -5.91,6.63c-2.46,1.72667 -5.26,2.99 -8.4,3.79c-3.13333,0.8 -6.36333,1.2 -9.69,1.2v0c-0.32,0 -0.81667,0 -1.49,0c-0.67333,0 -1.39333,-0.01667 -2.16,-0.05c-0.76667,-0.03333 -1.50333,-0.08 -2.21,-0.14c-0.70667,-0.06667 -1.22,-0.13 -1.54,-0.19zM359.005,59.86167v0c-1.53333,0 -2.78,0.03333 -3.74,0.1c-0.96,0.06667 -1.89,0.19333 -2.79,0.38v0v31.11c0.32,0.12667 0.78667,0.20667 1.4,0.24c0.60667,0.03333 1.24667,0.08 1.92,0.14c0.66667,0.06667 1.32,0.1 1.96,0.1c0.64,0 1.15333,0 1.54,0v0c2.24,0 4.35333,-0.30333 6.34,-0.91c1.98,-0.61333 3.72333,-1.59 5.23,-2.93c1.5,-1.34667 2.7,-3.04333 3.6,-5.09c0.89333,-2.04667 1.34,-4.51 1.34,-7.39v0c0,-5.24667 -1.48667,-9.18333 -4.46,-11.81c-2.98,-2.62667 -7.09333,-3.94 -12.34,-3.94zM415.075,120.44167v2.4h-21.32v-2.4c2.11333,-1.02667 4.22667,-1.79333 6.34,-2.3v0v-60.77l-7.3,-0.77v-2.5c1.66667,-0.76667 3.74667,-1.43667 6.24,-2.01c2.5,-0.58 4.93333,-1.06 7.3,-1.44v0h2.4v67.49c2.11333,0.50667 4.22667,1.27333 6.34,2.3zM458.075,110.26167v0c0,1.41333 0.03333,2.63 0.1,3.65c0.06667,1.02667 0.13,2.11667 0.19,3.27v0l6.63,0.96v2.01c-1.6,0.83333 -3.37667,1.57 -5.33,2.21c-1.95333,0.64 -3.82667,1.12 -5.62,1.44v0h-2.4c-0.64,-1.47333 -1.02333,-3.09 -1.15,-4.85c-0.12667,-1.76 -0.22333,-3.69667 -0.29,-5.81v0h-0.48c-0.25333,1.28 -0.75,2.57667 -1.49,3.89c-0.73333,1.31333 -1.69333,2.48333 -2.88,3.51c-1.18,1.02 -2.57,1.85 -4.17,2.49c-1.6,0.64 -3.42333,0.96 -5.47,0.96v0c-3.90667,0 -7.09333,-1.18333 -9.56,-3.55c-2.46,-2.36667 -3.69,-5.47 -3.69,-9.31v0c0,-2.94667 0.59,-5.36333 1.77,-7.25c1.18667,-1.88667 2.93333,-3.37333 5.24,-4.46c2.3,-1.09333 5.14667,-1.88 8.54,-2.36c3.39333,-0.48 7.33,-0.84667 11.81,-1.1v0c0.25333,-2.75333 0.33333,-5.23333 0.24,-7.44c-0.1,-2.20667 -0.45333,-4.09333 -1.06,-5.66c-0.60667,-1.57333 -1.50333,-2.79 -2.69,-3.65c-1.18,-0.86667 -2.73,-1.3 -4.65,-1.3v0c-0.9,0 -1.91,0.05 -3.03,0.15c-1.12,0.09333 -2.22333,0.36333 -3.31,0.81v0l-4.51,11.52h-2.5c-0.64,-1.92 -1.2,-3.90333 -1.68,-5.95c-0.48,-2.04667 -0.78333,-4.06333 -0.91,-6.05v0c2.43333,-1.47333 5.13667,-2.62333 8.11,-3.45c2.98,-0.83333 6.29333,-1.25 9.94,-1.25v0c3.26667,0 5.87333,0.46333 7.82,1.39c1.95333,0.92667 3.44333,2.12667 4.47,3.6c1.02,1.47333 1.69,3.10667 2.01,4.9c0.32,1.78667 0.48,3.57667 0.48,5.37v0c0,3.84 -0.08,7.53667 -0.24,11.09c-0.16,3.55333 -0.24,6.96 -0.24,10.22zM439.555,118.04167v0c1.6,0 3.00667,-0.32 4.22,-0.96c1.21333,-0.64 2.23667,-1.40667 3.07,-2.3c0.83333,-0.9 1.50667,-1.81333 2.02,-2.74c0.51333,-0.92667 0.86333,-1.71 1.05,-2.35v0v-10.08c-3.70667,0 -6.74667,0.19 -9.12,0.57c-2.36667,0.38667 -4.22,0.99667 -5.56,1.83c-1.34667,0.83333 -2.27667,1.87333 -2.79,3.12c-0.51333,1.24667 -0.77,2.67 -0.77,4.27v0c0,2.75333 0.70667,4.88 2.12,6.38c1.40667,1.50667 3.32667,2.26 5.76,2.26zM491.195,122.84167l-19.96,-43.2c-0.96,-0.25333 -1.84,-0.57333 -2.64,-0.96c-0.8,-0.38667 -1.61667,-0.83333 -2.45,-1.34v0v-2.5h20.06v2.4c-1.34,0.89333 -3.16333,1.69333 -5.47,2.4v0l12.29,28.42l1.82,5.95h0.19l1.44,-6.05l9.12,-28.32c-1.92,-0.38667 -3.68,-1.15333 -5.28,-2.3v0v-2.5h16.42v2.5c-1.34667,0.89333 -3.17,1.66 -5.47,2.3v0l-14.98,43.2c-1.53333,4.09333 -2.99,7.40667 -4.37,9.94c-1.37333,2.52667 -2.74667,4.52667 -4.12,6c-1.38,1.46667 -2.79,2.53667 -4.23,3.21c-1.44,0.67333 -2.99,1.17 -4.65,1.49v0c-0.70667,-1.21333 -1.33333,-2.55667 -1.88,-4.03c-0.54,-1.47333 -1.00333,-2.88333 -1.39,-4.23v0l1.25,-2.3h9.98c0.38667,-0.51333 0.72333,-1.01 1.01,-1.49c0.28667,-0.48 0.59,-1.07 0.91,-1.77c0.32,-0.70667 0.67333,-1.60333 1.06,-2.69c0.38667,-1.08667 0.83333,-2.46333 1.34,-4.13z"></path></g></g></g></svg>