<?xml version="1.0" standalone="no"?>
<!DOCTYPE svg PUBLIC "-//W3C//DTD SVG 20010904//EN"
 "http://www.w3.org/TR/2001/REC-SVG-20010904/DTD/svg10.dtd">
<svg version="1.0" xmlns="http://www.w3.org/2000/svg"
 width="128.000000pt" height="129.000000pt" viewBox="0 0 128.000000 129.000000"
 preserveAspectRatio="xMidYMid meet">

<g transform="translate(0.000000,129.000000) scale(0.100000,-0.100000)"
fill="#000000" stroke="none">
<path d="M278 1218 c-8 -14 -13 -61 -14 -118 -1 -74 -7 -115 -29 -185 -25 -79
-28 -107 -29 -225 -1 -144 14 -211 67 -305 l23 -40 337 -3 338 -2 40 85 c94
201 91 394 -11 619 -18 39 -21 62 -18 122 l3 74 -347 0 -347 0 -13 -22z m522
-261 c0 -8 -9 -49 -20 -93 -30 -117 -27 -301 6 -387 6 -16 -11 -17 -212 -15
l-219 3 -19 55 c-27 81 -26 229 3 345 13 50 25 93 28 98 2 4 101 7 219 7 172
0 214 -3 214 -13z"/>
<path d="M566 807 c-16 -11 -16 -17 -4 -55 19 -62 41 -56 64 18 l11 35 7 -36
c9 -45 -4 -73 -43 -94 -27 -14 -52 -68 -38 -82 12 -11 67 10 91 34 51 51 55
157 6 183 -26 14 -73 12 -94 -3z"/>
<path d="M397 792 c-45 -50 -44 -132 3 -182 33 -36 75 -40 113 -10 47 37 48
124 1 180 -20 24 -34 30 -63 30 -23 0 -44 -7 -54 -18z m93 -71 c0 -10 -7 -35
-15 -54 -8 -20 -12 -44 -8 -54 6 -16 5 -17 -11 -3 -15 11 -17 22 -11 55 9 51
9 74 0 105 l-7 25 26 -28 c14 -15 26 -36 26 -46z"/>
<path d="M200 221 c-24 -23 -30 -38 -30 -71 0 -58 33 -90 95 -90 39 0 45 3 45
21 0 18 -4 20 -31 14 -38 -9 -69 16 -69 56 0 37 24 59 66 59 28 0 35 4 32 18
-2 12 -14 18 -41 20 -30 3 -43 -2 -67 -27z"/>
<path d="M372 243 c-18 -7 -42 -57 -42 -88 0 -33 24 -81 45 -89 84 -32 156 45
121 128 -8 19 -23 39 -34 45 -21 11 -67 13 -90 4z m76 -45 c17 -17 15 -74 -4
-92 -20 -21 -30 -20 -54 4 -22 22 -24 37 -10 74 10 28 47 35 68 14z"/>
<path d="M547 243 c-4 -3 -7 -46 -7 -95 0 -80 2 -89 18 -86 11 2 18 14 20 34
3 26 8 33 33 38 36 7 34 28 -2 36 -29 7 -32 33 -4 38 42 7 48 11 35 27 -12 15
-81 21 -93 8z"/>
<path d="M684 237 c-2 -7 -4 -49 -2 -93 3 -66 6 -79 21 -82 13 -3 17 3 17 28
0 26 5 33 30 41 38 14 39 37 3 41 -38 4 -36 31 2 38 18 3 30 11 30 20 0 21
-93 27 -101 7z"/>
<path d="M834 237 c-3 -8 -4 -49 -2 -93 l3 -79 50 0 c38 0 50 4 50 15 0 10
-12 16 -33 18 -42 4 -41 35 1 40 37 4 35 31 -3 39 -16 3 -30 12 -30 19 0 9 11
14 30 14 23 0 30 4 30 20 0 17 -7 20 -45 20 -29 0 -48 -5 -51 -13z"/>
<path d="M975 227 c-3 -12 -5 -54 -3 -92 l3 -70 44 -3 c24 -2 49 -1 57 2 24 9
4 36 -27 36 -22 0 -29 5 -29 20 0 16 7 20 30 20 20 0 30 5 30 15 0 9 -12 18
-30 22 -38 7 -39 31 -3 35 17 2 29 10 31 21 3 14 -4 17 -47 17 -44 0 -51 -3
-56 -23z"/>
</g>
</svg>
