<?xml version="1.0" standalone="no"?>
<!DOCTYPE svg PUBLIC "-//W3C//DTD SVG 20010904//EN"
 "http://www.w3.org/TR/2001/REC-SVG-20010904/DTD/svg10.dtd">
<svg version="1.0" xmlns="http://www.w3.org/2000/svg"
 width="387.000000pt" height="380.000000pt" viewBox="0 0 387.000000 380.000000"
 preserveAspectRatio="xMidYMid meet">

<g transform="translate(0.000000,380.000000) scale(0.100000,-0.100000)"
fill="#000000" stroke="none">
<path d="M160 1910 l0 -1780 1780 0 1780 0 0 1780 0 1780 -1780 0 -1780 0 0
-1780z m3490 0 l0 -1710 -1710 0 -1710 0 0 1710 0 1710 1710 0 1710 0 0 -1710z"/>
<path d="M300 1910 l0 -1640 1640 0 1640 0 0 1640 0 1640 -1640 0 -1640 0 0
-1640z m3210 0 l0 -1570 -1570 0 -1570 0 0 1570 0 1570 1570 0 1570 0 0 -1570z"/>
<path d="M900 2600 c0 -5 12 -12 28 -16 15 -3 41 -9 57 -13 l30 -7 3 -637 2
-636 -42 -11 c-72 -19 -78 -21 -78 -31 0 -5 83 -9 200 -9 200 0 244 8 158 30
-79 19 -73 -8 -73 341 l0 313 90 -2 c126 -4 169 -26 211 -109 21 -40 34 -85
39 -125 23 -222 48 -386 61 -405 33 -51 107 -77 176 -61 44 9 98 51 98 75 0
19 -14 16 -35 -7 -24 -27 -57 -22 -72 10 -6 14 -21 113 -33 220 -15 135 -27
208 -42 242 -32 74 -125 141 -238 169 l-45 11 75 23 c41 12 88 27 105 34 50
21 109 76 140 132 26 47 30 64 30 135 0 70 -4 88 -30 139 -53 104 -175 174
-336 195 -107 13 -479 13 -479 0z m505 -54 c49 -21 101 -69 126 -118 26 -51
40 -157 29 -225 -26 -157 -117 -230 -295 -235 l-80 -3 -3 290 c-1 159 0 296 3
304 7 19 165 10 220 -13z"/>
<path d="M1980 2601 c0 -5 19 -15 43 -21 23 -6 48 -13 55 -15 10 -4 12 -137
10 -642 l-3 -637 -49 -10 c-27 -6 -51 -17 -54 -23 -3 -10 40 -13 193 -13 153
0 196 3 193 13 -3 6 -27 17 -54 23 l-49 10 0 319 0 318 85 -2 c132 -4 198 -44
229 -141 11 -35 43 -260 56 -395 11 -115 62 -168 160 -167 60 0 107 21 131 57
23 36 7 51 -21 20 -28 -29 -47 -32 -69 -9 -9 8 -16 17 -16 18 0 2 -11 99 -25
216 -28 230 -39 265 -97 316 -52 46 -97 71 -163 90 l-60 17 60 17 c139 38 214
91 262 185 51 98 29 241 -50 324 -46 48 -96 77 -184 108 -75 26 -88 27 -330
31 -176 3 -253 1 -253 -7z m518 -65 c98 -50 149 -157 139 -296 -8 -121 -52
-196 -140 -241 -41 -22 -194 -46 -221 -36 -14 6 -16 37 -16 308 l0 302 93 -5
c74 -4 102 -10 145 -32z"/>
</g>
</svg>
