<?xml version="1.0" standalone="no"?>
<!DOCTYPE svg PUBLIC "-//W3C//DTD SVG 20010904//EN"
 "http://www.w3.org/TR/2001/REC-SVG-20010904/DTD/svg10.dtd">
<svg version="1.0" xmlns="http://www.w3.org/2000/svg"
 width="128.000000pt" height="127.000000pt" viewBox="0 0 128.000000 127.000000"
 preserveAspectRatio="xMidYMid meet">

<g transform="translate(0.000000,127.000000) scale(0.100000,-0.100000)"
fill="#000000" stroke="none">
<path d="M526 936 c-73 -20 -94 -57 -55 -92 26 -23 49 -74 49 -108 0 -14 10
-30 24 -39 22 -15 25 -15 30 0 4 9 4 35 1 57 l-7 41 79 0 78 0 0 -66 c0 -63 3
-71 48 -136 52 -77 57 -102 27 -150 -28 -47 -73 -67 -152 -68 -65 0 -67 -1
-72 -29 -4 -16 -4 -31 -1 -34 2 -3 27 -7 54 -10 91 -8 199 46 237 121 21 40
20 110 -3 149 l-18 32 32 31 c17 17 100 73 182 125 83 52 153 102 156 111 7
21 -3 46 -21 53 -7 3 -86 -31 -175 -75 -142 -70 -239 -104 -239 -84 0 12 22
50 42 72 30 32 20 65 -26 87 -51 25 -201 32 -270 12z m198 -42 c35 -13 0 -24
-79 -24 -78 0 -119 12 -78 23 27 7 139 8 157 1z"/>
<path d="M113 630 c8 -72 29 -125 64 -162 26 -27 31 -28 124 -28 54 0 100 4
103 9 3 4 32 18 65 30 65 23 111 67 111 105 0 26 -38 66 -64 66 -10 0 -20 9
-23 20 -5 19 -14 20 -196 20 l-190 0 6 -60z m165 -3 c36 -43 15 -117 -33 -117
-27 0 -55 33 -55 65 0 50 60 86 88 52z m100 -35 c5 -47 -21 -82 -59 -82 -26 0
-29 2 -19 19 5 11 19 23 30 26 11 3 20 14 20 23 0 12 -3 13 -12 4 -18 -18 -25
-15 -30 13 -6 31 -1 37 37 33 26 -3 30 -7 33 -36z m142 -12 c0 -12 -12 -26
-30 -35 -32 -17 -36 -11 -20 29 12 32 50 36 50 6z"/>
<path d="M236 579 c-8 -41 -3 -46 14 -14 9 18 10 29 3 36 -7 7 -12 0 -17 -22z"/>
<path d="M52 391 c-8 -5 -12 -17 -10 -27 3 -16 14 -20 66 -22 49 -2 64 -7 72
-22 10 -18 22 -20 115 -20 95 0 104 2 110 20 5 17 15 20 71 20 l65 0 -3 28 -3
27 -235 2 c-129 2 -241 -1 -248 -6z"/>
</g>
</svg>
