<svg xmlns="http://www.w3.org/2000/svg" width="129" height="130" viewBox="0 0 129 130" version="1.1"><path d="M 53.725 18.566 C 43.716 20.991, 37.017 24.820, 29.483 32.420 C 25.623 36.314, 21.251 41.784, 19.766 44.575 C 9.443 63.977, 13.296 88.444, 29.132 104.047 C 56.929 131.434, 104.934 119.657, 116.161 82.695 C 117.886 77.018, 118.173 74.005, 117.798 65.562 C 117.384 56.257, 116.990 54.567, 113.494 47.118 C 104.980 28.975, 85.624 16.868, 65.500 17.098 C 62.200 17.136, 56.901 17.796, 53.725 18.566 M 53.500 25.404 C 38.374 30.208, 27.375 41.019, 22.522 55.854 C 19.712 64.443, 20.677 77.585, 24.758 86.302 C 33.196 104.321, 53.210 115.051, 72.675 111.989 C 90.002 109.263, 104.029 97.473, 109.484 81.048 C 111.664 74.483, 111.682 61.570, 109.520 55.059 C 105.035 41.556, 93.785 30.522, 79.564 25.676 C 73.679 23.671, 59.425 23.522, 53.500 25.404 M 43.762 48.973 C 40.759 51.334, 38 56.808, 38 60.401 C 38 63.920, 39.253 63.669, 42.422 59.513 C 43.885 57.596, 45.934 55.571, 46.975 55.013 C 49.812 53.495, 53.715 55.403, 56.123 59.485 C 58.408 63.356, 61 64.145, 61 60.968 C 61 54.904, 54.243 47, 49.058 47 C 47.525 47, 45.141 47.888, 43.762 48.973 M 77.149 49.528 C 72.458 53.476, 69.509 63, 72.977 63 C 73.450 63, 74.763 61.502, 75.894 59.672 C 80.024 52.989, 86.022 52.983, 89.961 59.658 C 93.481 65.625, 96.130 63.248, 93.535 56.452 C 91.508 51.144, 86.889 47, 83 47 C 81.414 47, 78.823 48.120, 77.149 49.528 M 35.147 76.323 C 34.340 77.295, 34.479 79.159, 35.671 83.349 C 37.545 89.935, 43.003 96.757, 49.349 100.443 C 58.645 105.843, 73.086 105.799, 83.114 100.341 C 91.295 95.889, 99.339 82.795, 97.484 76.951 C 96.888 75.073, 95.732 75, 66.555 75 C 42.634 75, 36.013 75.279, 35.147 76.323 M 42.610 81.822 C 41.733 83.241, 44.875 88.366, 48.715 91.781 C 59.225 101.127, 78.358 99.312, 86.743 88.172 C 92.309 80.776, 92.939 81, 66.559 81 C 53.666 81, 42.890 81.370, 42.610 81.822" stroke="none" fill="#46301b" fill-rule="evenodd"/><path d="M 0 65.007 L 0 130.015 64.750 129.757 L 129.500 129.500 129.757 64.750 L 130.015 0 65.007 0 L 0 0 0 65.007 M 0.472 65.500 C 0.472 101.250, 0.597 115.730, 0.750 97.677 C 0.902 79.625, 0.902 50.375, 0.749 32.677 C 0.596 14.980, 0.471 29.750, 0.472 65.500 M 53.725 18.566 C 43.716 20.991, 37.017 24.820, 29.483 32.420 C 25.623 36.314, 21.251 41.784, 19.766 44.575 C 9.443 63.977, 13.296 88.444, 29.132 104.047 C 56.929 131.434, 104.934 119.657, 116.161 82.695 C 117.886 77.018, 118.173 74.005, 117.798 65.562 C 117.384 56.257, 116.990 54.567, 113.494 47.118 C 104.980 28.975, 85.624 16.868, 65.500 17.098 C 62.200 17.136, 56.901 17.796, 53.725 18.566 M 53.500 25.404 C 38.374 30.208, 27.375 41.019, 22.522 55.854 C 19.712 64.443, 20.677 77.585, 24.758 86.302 C 33.196 104.321, 53.210 115.051, 72.675 111.989 C 90.002 109.263, 104.029 97.473, 109.484 81.048 C 111.664 74.483, 111.682 61.570, 109.520 55.059 C 105.035 41.556, 93.785 30.522, 79.564 25.676 C 73.679 23.671, 59.425 23.522, 53.500 25.404 M 43.762 48.973 C 40.759 51.334, 38 56.808, 38 60.401 C 38 63.920, 39.253 63.669, 42.422 59.513 C 43.885 57.596, 45.934 55.571, 46.975 55.013 C 49.812 53.495, 53.715 55.403, 56.123 59.485 C 58.408 63.356, 61 64.145, 61 60.968 C 61 54.904, 54.243 47, 49.058 47 C 47.525 47, 45.141 47.888, 43.762 48.973 M 77.149 49.528 C 72.458 53.476, 69.509 63, 72.977 63 C 73.450 63, 74.763 61.502, 75.894 59.672 C 80.024 52.989, 86.022 52.983, 89.961 59.658 C 93.481 65.625, 96.130 63.248, 93.535 56.452 C 91.508 51.144, 86.889 47, 83 47 C 81.414 47, 78.823 48.120, 77.149 49.528 M 35.147 76.323 C 34.340 77.295, 34.479 79.159, 35.671 83.349 C 37.545 89.935, 43.003 96.757, 49.349 100.443 C 58.645 105.843, 73.086 105.799, 83.114 100.341 C 91.295 95.889, 99.339 82.795, 97.484 76.951 C 96.888 75.073, 95.732 75, 66.555 75 C 42.634 75, 36.013 75.279, 35.147 76.323 M 42.610 81.822 C 41.733 83.241, 44.875 88.366, 48.715 91.781 C 59.225 101.127, 78.358 99.312, 86.743 88.172 C 92.309 80.776, 92.939 81, 66.559 81 C 53.666 81, 42.890 81.370, 42.610 81.822" stroke="none" fill="#f8f7f7" fill-rule="evenodd"/></svg>