<?xml version="1.0" standalone="no"?>
<!DOCTYPE svg PUBLIC "-//W3C//DTD SVG 20010904//EN"
 "http://www.w3.org/TR/2001/REC-SVG-20010904/DTD/svg10.dtd">
<svg version="1.0" xmlns="http://www.w3.org/2000/svg"
 width="127.000000pt" height="128.000000pt" viewBox="0 0 127.000000 128.000000"
 preserveAspectRatio="xMidYMid meet">

<g transform="translate(0.000000,128.000000) scale(0.100000,-0.100000)"
fill="#000000" stroke="none">
<path d="M560 1113 c-106 -18 -217 -79 -290 -161 -181 -203 -171 -503 24 -690
157 -151 366 -184 566 -89 88 41 186 139 231 232 34 69 34 71 34 210 l0 140
-36 75 c-20 41 -59 100 -87 131 -104 114 -290 178 -442 152z m144 -63 c288
-47 450 -353 327 -616 -103 -221 -360 -312 -584 -206 -259 122 -324 478 -126
687 64 68 139 112 221 130 78 17 89 17 162 5z"/>
<path d="M438 814 c-32 -17 -68 -81 -68 -119 0 -35 14 -31 39 10 11 20 31 39
43 44 41 15 57 4 115 -78 2 -3 8 0 15 7 17 17 -17 96 -53 127 -35 29 -53 30
-91 9z"/>
<path d="M749 803 c-33 -28 -59 -78 -59 -113 0 -31 23 -24 44 14 35 65 96 64
136 -2 40 -66 55 -20 19 55 -20 41 -60 73 -93 73 -8 0 -29 -12 -47 -27z"/>
<path d="M347 543 c-14 -14 -6 -66 18 -118 29 -60 92 -117 157 -141 67 -25
182 -22 246 6 67 29 144 111 161 173 25 87 44 82 -285 85 -160 1 -293 -1 -297
-5z m523 -61 c0 -4 -14 -29 -30 -56 -82 -128 -309 -131 -400 -4 -51 70 -57 68
200 68 127 0 230 -4 230 -8z"/>
</g>
</svg>
