<?xml version="1.0" standalone="no"?>
<!DOCTYPE svg PUBLIC "-//W3C//DTD SVG 20010904//EN"
 "http://www.w3.org/TR/2001/REC-SVG-20010904/DTD/svg10.dtd">
<svg version="1.0" xmlns="http://www.w3.org/2000/svg"
 width="128.000000pt" height="127.000000pt" viewBox="0 0 128.000000 127.000000"
 preserveAspectRatio="xMidYMid meet">

<g transform="translate(0.000000,127.000000) scale(0.100000,-0.100000)"
fill="#000000" stroke="none">
<path d="M183 1229 c-64 -19 -63 -12 -63 -586 0 -397 3 -524 13 -543 24 -48
54 -51 534 -48 l442 3 23 23 c31 31 33 138 4 171 -18 20 -28 21 -268 21 l-248
0 0 365 0 365 65 0 65 0 0 -39 c0 -45 20 -71 56 -71 21 0 24 -5 24 -35 l0 -35
65 0 65 0 0 35 c0 32 3 35 28 35 39 0 52 17 52 67 0 39 2 43 25 43 42 0 74 21
86 58 16 50 6 129 -20 155 -21 22 -25 22 -469 24 -260 1 -461 -2 -479 -8z
m270 -189 c39 -43 37 -97 -4 -145 -26 -30 -37 -35 -74 -35 -67 0 -122 64 -109
127 18 90 126 120 187 53z m0 -400 c18 -20 27 -41 27 -64 0 -71 -7 -70 -91 7
-71 65 -77 73 -61 85 28 22 93 8 125 -28z m-89 -106 c70 -65 71 -74 2 -74 -57
0 -115 73 -101 127 7 29 12 26 99 -53z"/>
<path d="M730 631 c0 -46 22 -111 50 -152 21 -28 24 -29 104 -29 66 0 96 5
147 26 82 33 109 58 109 100 0 35 -28 64 -62 64 -10 0 -18 7 -18 15 0 13 -25
15 -165 15 l-165 0 0 -39z m129 -93 c33 -35 41 -48 28 -48 -53 0 -107 59 -107
117 l0 27 16 -24 c10 -14 37 -46 63 -72z m235 44 c7 -11 -5 -27 -31 -41 -24
-12 -26 -9 -17 27 6 21 37 31 48 14z"/>
<path d="M670 391 c0 -23 19 -31 76 -31 32 0 44 -4 44 -15 0 -12 18 -15 100
-15 81 0 100 3 100 15 0 10 15 15 58 17 50 3 57 6 60 26 l3 22 -220 0 c-210 0
-221 -1 -221 -19z"/>
</g>
</svg>
