<?xml version="1.0" standalone="no"?>
<!DOCTYPE svg PUBLIC "-//W3C//DTD SVG 20010904//EN"
 "http://www.w3.org/TR/2001/REC-SVG-20010904/DTD/svg10.dtd">
<svg version="1.0" xmlns="http://www.w3.org/2000/svg"
 width="129.000000pt" height="128.000000pt" viewBox="0 0 129.000000 128.000000"
 preserveAspectRatio="xMidYMid meet">

<g transform="translate(0.000000,128.000000) scale(0.100000,-0.100000)"
fill="#000000" stroke="none">
<path d="M370 1112 c134 -92 175 -219 111 -346 -27 -54 -27 -56 -7 -50 29 9
56 34 56 52 0 9 14 -1 35 -24 l34 -39 -2 -225 -2 -225 -122 -3 -123 -3 0 197
0 196 -22 -6 c-13 -3 -31 -6 -40 -6 -17 0 -18 -18 -18 -230 l0 -230 205 0 205
0 0 280 c0 243 2 284 16 306 l17 25 18 -30 c32 -53 107 -54 137 -2 l16 28 32
-33 c40 -44 75 -45 116 -3 24 23 33 27 39 17 5 -7 9 -142 9 -300 l0 -288 40 0
40 0 0 268 0 268 29 17 c51 30 49 45 -36 233 l-78 174 -365 -1 c-346 0 -364
-1 -340 -17z"/>
<path d="M196 1068 c-86 -24 -156 -134 -139 -220 20 -107 94 -169 199 -169 72
0 134 35 170 97 53 91 15 228 -76 275 -46 24 -106 30 -154 17z m136 -79 c83
-59 73 -197 -17 -235 -155 -64 -271 131 -139 235 37 29 115 29 156 0z"/>
<path d="M165 945 c-49 -48 -23 -145 38 -145 70 0 87 129 21 159 -33 15 -31
15 -59 -14z m65 -47 c0 -4 -9 -25 -20 -45 -15 -27 -21 -33 -25 -20 -4 8 -2 24
4 36 6 11 11 32 11 48 1 27 1 27 15 9 8 -11 15 -23 15 -28z"/>
<path d="M285 940 c-7 -12 5 -60 16 -60 4 0 15 12 23 28 l15 27 1 -32 c0 -26
-6 -36 -30 -48 -16 -8 -34 -24 -40 -35 -10 -18 -8 -20 20 -20 45 0 80 39 80
88 0 21 -5 43 -12 50 -14 14 -64 16 -73 2z"/>
</g>
</svg>
