<?xml version="1.0" standalone="no"?>
<!DOCTYPE svg PUBLIC "-//W3C//DTD SVG 20010904//EN"
 "http://www.w3.org/TR/2001/REC-SVG-20010904/DTD/svg10.dtd">
<svg version="1.0" xmlns="http://www.w3.org/2000/svg"
 width="127.000000pt" height="129.000000pt" viewBox="0 0 127.000000 129.000000"
 preserveAspectRatio="xMidYMid meet">

<g transform="translate(0.000000,129.000000) scale(0.100000,-0.100000)"
fill="#000000" stroke="none">
<path d="M145 993 c-97 -217 -99 -234 -38 -263 l33 -15 0 -307 0 -308 505 0
505 0 0 305 0 304 28 15 c15 8 34 25 41 39 12 22 5 42 -76 226 l-88 201 -411
0 -411 0 -88 -197z m320 -232 c32 -63 129 -62 162 2 l15 30 19 -30 c41 -64
126 -65 163 -2 l18 31 19 -31 c22 -36 61 -54 99 -46 28 6 63 38 73 65 3 10 8
6 16 -14 8 -19 10 -115 9 -300 l-3 -271 -81 -3 -81 -3 -6 143 c-4 79 -7 185
-7 236 l0 92 -227 0 c-126 0 -234 -4 -242 -9 -12 -8 -13 -47 -8 -235 l6 -226
-90 0 -89 0 0 283 c0 155 4 288 9 296 7 11 15 6 39 -20 25 -28 37 -34 70 -34
42 0 92 34 92 62 0 21 8 15 25 -16z m139 -221 c47 -18 71 -105 45 -163 -15
-33 -64 -60 -92 -51 -79 24 -98 150 -30 204 29 23 41 24 77 10z m161 -16 c27
-11 47 -61 39 -100 -13 -68 -86 -121 -139 -100 -14 5 -14 9 -1 35 9 16 29 33
45 39 34 12 54 43 48 75 -3 21 -4 21 -15 -5 -9 -22 -39 -48 -54 -48 -2 0 -5
10 -5 23 -1 12 -5 32 -8 45 -4 17 0 25 17 32 28 11 51 12 73 4z"/>
<path d="M572 483 c1 -21 -5 -52 -12 -69 -8 -19 -10 -38 -5 -50 8 -17 9 -17
13 6 2 14 9 32 16 40 23 27 26 51 11 81 -20 38 -25 37 -23 -8z"/>
</g>
</svg>
