<svg xmlns="http://www.w3.org/2000/svg" xmlns:xlink="http://www.w3.org/1999/xlink" viewBox="0,0,256,256" width="100px" height="100px"><g transform="translate(88.32,88.32) scale(0.31,0.31)"><g fill="#000000" fill-rule="nonzero" stroke="none" stroke-width="1" stroke-linecap="butt" stroke-linejoin="miter" stroke-miterlimit="10" stroke-dasharray="" stroke-dashoffset="0" font-family="none" font-weight="none" font-size="none" text-anchor="none" style="mix-blend-mode: normal"><g transform="translate(-247.11068,-31.23295) scale(5.12,5.12)"><path d="M44.52734,34.75c-1.07812,2.39453 -1.59766,3.46484 -2.98437,5.57813c-1.94141,2.95313 -4.67969,6.64063 -8.0625,6.66406c-3.01172,0.02734 -3.78906,-1.96484 -7.87891,-1.92969c-4.08594,0.01953 -4.9375,1.96875 -7.95312,1.9375c-3.38672,-0.03125 -5.97656,-3.35156 -7.91797,-6.30078c-5.42969,-8.26953 -6.00391,-17.96484 -2.64844,-23.12109c2.375,-3.65625 6.12891,-5.80469 9.65625,-5.80469c3.59375,0 5.85156,1.97266 8.82031,1.97266c2.88281,0 4.63672,-1.97656 8.79297,-1.97656c3.14063,0 6.46094,1.71094 8.83594,4.66406c-7.76562,4.25781 -6.50391,15.34766 1.33984,18.31641zM31.19531,8.46875c1.51172,-1.94141 2.66016,-4.67969 2.24219,-7.46875c-2.46484,0.16797 -5.34766,1.74219 -7.03125,3.78125c-1.52734,1.85938 -2.79297,4.61719 -2.30078,7.28516c2.69141,0.08594 5.47656,-1.51953 7.08984,-3.59766z"></path></g></g><g fill="#000000" fill-rule="nonzero" stroke="none" stroke-width="1" stroke-linecap="butt" stroke-linejoin="miter" stroke-miterlimit="10" stroke-dasharray="" stroke-dashoffset="0" font-family="none" font-weight="none" font-size="none" text-anchor="none" style="mix-blend-mode: normal"><g><path d="M89.45,149.38l-6.95,-19h-30.5l-6.85,19h-9.9l27.8,-72.8h8.4l27.85,72.8zM67.25,88.43l-12.35,34.05h24.75zM153.35,122.08v0.85c0,8.23333 -1.88333,14.86667 -5.65,19.9c-3.76667,5.03333 -8.86667,7.55 -15.3,7.55v0c-6.56667,0 -11.73333,-2.08333 -15.5,-6.25v0v26.05h-9.25v-74.9h8.45l0.45,6c3.76667,-4.66667 9,-7 15.7,-7v0c6.5,0 11.64333,2.45 15.43,7.35c3.78,4.9 5.67,11.71667 5.67,20.45zM144.1,121.88v0c0,-6.1 -1.3,-10.91667 -3.9,-14.45c-2.6,-3.53333 -6.16667,-5.3 -10.7,-5.3v0c-5.6,0 -9.8,2.48333 -12.6,7.45v0v25.85c2.76667,4.93333 7,7.4 12.7,7.4v0c4.43333,0 7.96,-1.75667 10.58,-5.27c2.61333,-3.52 3.92,-8.74667 3.92,-15.68zM210.8,122.08v0.85c0,8.23333 -1.88333,14.86667 -5.65,19.9c-3.76667,5.03333 -8.86667,7.55 -15.3,7.55v0c-6.56667,0 -11.73333,-2.08333 -15.5,-6.25v0v26.05h-9.25v-74.9h8.45l0.45,6c3.76667,-4.66667 9,-7 15.7,-7v0c6.5,0 11.64333,2.45 15.43,7.35c3.78,4.9 5.67,11.71667 5.67,20.45zM201.55,121.88v0c0,-6.1 -1.3,-10.91667 -3.9,-14.45c-2.6,-3.53333 -6.16667,-5.3 -10.7,-5.3v0c-5.6,0 -9.8,2.48333 -12.6,7.45v0v25.85c2.76667,4.93333 7,7.4 12.7,7.4v0c4.43333,0 7.96,-1.75667 10.58,-5.27c2.61333,-3.52 3.92,-8.74667 3.92,-15.68zM270.8,116.93v0c-8.23333,-2.36667 -14.22667,-5.27333 -17.98,-8.72c-3.74667,-3.45333 -5.62,-7.71333 -5.62,-12.78v0c0,-5.73333 2.29,-10.47333 6.87,-14.22c4.58667,-3.75333 10.54667,-5.63 17.88,-5.63v0c5,0 9.45667,0.96667 13.37,2.9c3.92,1.93333 6.95333,4.6 9.1,8c2.15333,3.4 3.23,7.11667 3.23,11.15v0h-9.65c0,-4.4 -1.4,-7.85667 -4.2,-10.37c-2.8,-2.52 -6.75,-3.78 -11.85,-3.78v0c-4.73333,0 -8.42667,1.04333 -11.08,3.13c-2.64667,2.08 -3.97,4.97 -3.97,8.67v0c0,2.96667 1.25667,5.47667 3.77,7.53c2.52,2.04667 6.80333,3.92 12.85,5.62c6.05333,1.7 10.79,3.57667 14.21,5.63c3.41333,2.04667 5.94333,4.43667 7.59,7.17c1.65333,2.73333 2.48,5.95 2.48,9.65v0c0,5.9 -2.3,10.62667 -6.9,14.18c-4.6,3.54667 -10.75,5.32 -18.45,5.32v0c-5,0 -9.66667,-0.95667 -14,-2.87c-4.33333,-1.92 -7.67667,-4.54667 -10.03,-7.88c-2.34667,-3.33333 -3.52,-7.11667 -3.52,-11.35v0h9.65c0,4.4 1.62333,7.87667 4.87,10.43c3.25333,2.54667 7.59667,3.82 13.03,3.82v0c5.06667,0 8.95,-1.03333 11.65,-3.1c2.7,-2.06667 4.05,-4.88333 4.05,-8.45c0,-3.56667 -1.25,-6.32333 -3.75,-8.27c-2.5,-1.95333 -7.03333,-3.88 -13.6,-5.78zM311.95,82.18h9.25v13.1h10.1v7.15h-10.1v33.55c0,2.16667 0.45,3.79333 1.35,4.88c0.9,1.08 2.43333,1.62 4.6,1.62v0c1.06667,0 2.53333,-0.2 4.4,-0.6v0v7.5c-2.43333,0.66667 -4.8,1 -7.1,1v0c-4.13333,0 -7.25,-1.25 -9.35,-3.75c-2.1,-2.5 -3.15,-6.05 -3.15,-10.65v0v-33.55h-9.85v-7.15h9.85zM338.65,122.48v-0.65c0,-5.3 1.04,-10.06667 3.12,-14.3c2.08667,-4.23333 4.98667,-7.5 8.7,-9.8c3.72,-2.3 7.96333,-3.45 12.73,-3.45v0c7.36667,0 13.32333,2.55 17.87,7.65c4.55333,5.1 6.83,11.88333 6.83,20.35v0v0.65c0,5.26667 -1.01,9.99333 -3.03,14.18c-2.01333,4.18 -4.89667,7.43667 -8.65,9.77c-3.74667,2.33333 -8.05333,3.5 -12.92,3.5v0c-7.33333,0 -13.27667,-2.55 -17.83,-7.65c-4.54667,-5.1 -6.82,-11.85 -6.82,-20.25zM347.95,122.93v0c0,6 1.39,10.81667 4.17,14.45c2.78667,3.63333 6.51333,5.45 11.18,5.45v0c4.7,0 8.43333,-1.84 11.2,-5.52c2.76667,-3.68667 4.15,-8.84667 4.15,-15.48v0c0,-5.93333 -1.41,-10.74 -4.23,-14.42c-2.81333,-3.68667 -6.55333,-5.53 -11.22,-5.53v0c-4.56667,0 -8.25,1.81667 -11.05,5.45c-2.8,3.63333 -4.2,8.83333 -4.2,15.6zM425.65,94.98v8.6c-1.4,-0.23333 -2.91667,-0.35 -4.55,-0.35v0c-6.06667,0 -10.18333,2.58333 -12.35,7.75v0v38.4h-9.25v-54.1h9l0.15,6.25c3.03333,-4.83333 7.33333,-7.25 12.9,-7.25v0c1.8,0 3.16667,0.23333 4.1,0.7zM455.65,150.38v0c-7.33333,0 -13.3,-2.40667 -17.9,-7.22c-4.6,-4.82 -6.9,-11.26333 -6.9,-19.33v0v-1.7c0,-5.36667 1.02333,-10.15667 3.07,-14.37c2.05333,-4.22 4.92,-7.52 8.6,-9.9c3.68667,-2.38667 7.68,-3.58 11.98,-3.58v0c7.03333,0 12.5,2.31667 16.4,6.95c3.9,4.63333 5.85,11.26667 5.85,19.9v0v3.85h-36.65c0.13333,5.33333 1.69,9.64333 4.67,12.93c2.98667,3.28 6.78,4.92 11.38,4.92v0c3.26667,0 6.03333,-0.66667 8.3,-2c2.26667,-1.33333 4.25,-3.1 5.95,-5.3v0l5.65,4.4c-4.53333,6.96667 -11.33333,10.45 -20.4,10.45zM454.5,101.88v0c-3.73333,0 -6.86667,1.36 -9.4,4.08c-2.53333,2.71333 -4.1,6.52 -4.7,11.42v0h27.1v-0.7c-0.26667,-4.7 -1.53333,-8.34 -3.8,-10.92c-2.26667,-2.58667 -5.33333,-3.88 -9.2,-3.88z"></path></g></g></g></svg>