<?xml version="1.0" standalone="no"?>
<!DOCTYPE svg PUBLIC "-//W3C//DTD SVG 20010904//EN"
 "http://www.w3.org/TR/2001/REC-SVG-20010904/DTD/svg10.dtd">
<svg version="1.0" xmlns="http://www.w3.org/2000/svg"
 width="604.000000pt" height="158.000000pt" viewBox="0 0 604.000000 158.000000"
 preserveAspectRatio="xMidYMid meet">

<g transform="translate(0.000000,158.000000) scale(0.100000,-0.100000)"
fill="#000000" stroke="none">
<path d="M90 810 l0 -660 660 0 660 0 0 660 0 660 -660 0 -660 0 0 -660z
m1300 -5 l0 -635 -635 0 -635 0 0 635 0 635 635 0 635 0 0 -635z"/>
<path d="M140 810 l0 -610 610 0 610 0 0 610 0 610 -610 0 -610 0 0 -610z
m1190 0 l0 -580 -580 0 -580 0 0 580 0 580 580 0 580 0 0 -580z"/>
<path d="M378 1060 c22 -9 22 -10 22 -243 0 -233 0 -234 -22 -245 -19 -9 -8
-11 57 -11 65 0 76 2 58 11 -22 11 -23 17 -23 125 l0 114 42 -3 c57 -4 74 -32
86 -136 11 -89 29 -122 66 -122 22 1 56 22 56 35 0 4 -7 2 -16 -6 -22 -18 -31
0 -39 85 -9 91 -24 118 -77 144 -28 14 -36 21 -23 22 34 0 85 39 100 74 10 24
12 43 5 68 -20 71 -80 98 -217 97 -69 0 -91 -3 -75 -9z m184 -21 c29 -16 51
-74 43 -119 -8 -49 -42 -80 -94 -87 l-41 -6 0 112 0 111 36 0 c19 0 44 -5 56
-11z"/>
<path d="M778 1060 c22 -9 22 -10 22 -243 0 -233 0 -234 -22 -245 -19 -9 -7
-11 57 -10 68 0 76 2 53 11 l-28 11 0 113 0 114 46 -3 c63 -4 80 -29 92 -136
11 -89 29 -122 67 -122 12 0 30 10 41 22 14 17 15 20 2 9 -27 -21 -35 -6 -43
76 -9 97 -24 127 -75 149 l-40 18 38 12 c53 19 82 56 82 107 0 90 -62 127
-215 126 -70 0 -93 -3 -77 -9z m187 -26 c33 -21 50 -84 35 -128 -15 -47 -42
-68 -95 -73 l-45 -6 0 112 0 111 40 0 c23 0 52 -7 65 -16z"/>
<path d="M3983 1390 c-42 -17 -57 -85 -29 -138 14 -27 13 -29 -20 -51 -41 -29
-74 -79 -74 -115 0 -15 11 -38 25 -51 19 -20 34 -25 77 -25 33 0 68 7 90 19
36 18 38 18 54 0 9 -11 30 -19 46 -19 29 0 68 30 68 53 -1 7 -6 5 -14 -5 -19
-25 -41 -22 -60 7 -16 24 -15 27 9 70 15 24 39 53 53 64 l27 20 -63 1 c-40 0
-61 -4 -57 -10 3 -5 13 -10 21 -10 8 0 14 -9 14 -20 0 -22 -20 -70 -29 -70 -3
0 -25 30 -49 66 l-43 65 31 35 c33 38 36 54 19 87 -20 38 -49 46 -96 27z m75
-49 c3 -24 -3 -40 -19 -57 l-23 -25 -13 23 c-13 25 -17 80 -6 92 4 4 19 6 33
4 20 -2 26 -9 28 -37z m-33 -198 c49 -74 53 -88 29 -97 -65 -25 -135 29 -119
92 6 27 32 72 40 72 3 0 25 -30 50 -67z"/>
<path d="M1760 1381 c0 -6 11 -11 25 -11 l25 0 0 -170 0 -170 -26 0 c-14 0
-23 -4 -19 -10 3 -5 44 -10 90 -10 46 0 87 5 90 10 4 6 -7 10 -24 10 l-31 0 0
90 c0 83 1 90 20 90 40 0 60 -35 60 -104 0 -58 3 -67 26 -85 34 -27 50 -26 79
4 17 16 25 35 25 57 0 25 -3 29 -10 18 -5 -8 -10 -25 -10 -37 0 -27 -19 -40
-31 -22 -5 8 -9 36 -9 62 0 60 -11 81 -51 97 l-31 13 33 11 c46 16 74 56 62
92 -18 55 -52 69 -179 72 -77 3 -114 0 -114 -7z m198 -23 c7 -7 12 -33 12 -59
0 -38 -5 -51 -22 -63 -12 -9 -30 -16 -40 -16 -16 0 -18 10 -18 75 l0 75 28 0
c15 0 33 -5 40 -12z"/>
<path d="M4640 1381 c0 -6 11 -11 25 -11 l25 0 -2 -167 c-3 -166 -3 -168 -25
-171 -13 -2 -23 -8 -23 -13 0 -5 41 -9 90 -9 53 0 90 4 90 10 0 6 -11 10 -25
10 -25 0 -25 1 -25 90 0 82 2 90 19 90 32 0 51 -28 51 -73 0 -101 40 -154 97
-128 33 15 61 101 33 101 -5 0 -10 -13 -10 -29 0 -29 -21 -57 -33 -44 -4 3 -7
32 -7 63 0 62 -10 80 -55 104 -25 13 -27 15 -9 16 12 0 33 10 48 21 23 18 27
28 24 62 -5 66 -35 81 -174 85 -77 3 -114 0 -114 -7z m200 -30 c28 -53 -2
-131 -50 -131 -18 0 -20 7 -20 75 l0 75 30 0 c19 0 33 -7 40 -19z"/>
<path d="M3364 1333 c-8 -33 -32 -63 -51 -63 -7 0 -13 -4 -13 -10 0 -5 7 -10
15 -10 12 0 15 -18 15 -100 0 -87 3 -103 20 -120 11 -11 31 -20 45 -20 29 0
65 32 65 58 0 9 3 27 6 40 4 13 2 22 -5 22 -6 0 -11 -10 -11 -22 0 -38 -11
-66 -28 -73 -25 -9 -32 14 -32 118 l0 97 28 1 27 1 -25 7 c-22 6 -25 13 -28
54 -3 52 -18 62 -28 20z"/>
<path d="M2286 1245 c-67 -62 -58 -170 18 -221 54 -34 129 7 146 80 26 117
-86 213 -164 141z m85 -2 c21 -24 19 -187 -2 -208 -19 -20 -45 -11 -53 18 -9
35 -7 153 4 181 11 30 31 33 51 9z"/>
<path d="M2645 1245 c-14 -13 -25 -30 -25 -38 0 -20 27 -40 45 -33 17 6 21 46
5 46 -22 0 -8 30 17 36 31 8 53 -15 53 -55 0 -22 -10 -30 -60 -54 -44 -20 -61
-34 -66 -53 -15 -59 38 -99 100 -76 20 8 34 8 40 2 15 -15 53 -12 70 6 9 8 16
27 15 42 l-1 27 -10 -27 c-18 -50 -28 -29 -28 58 0 81 -1 87 -29 115 -38 38
-91 40 -126 4z m93 -146 c-4 -62 -29 -88 -54 -54 -26 35 -1 105 38 105 17 0
19 -6 16 -51z"/>
<path d="M3006 1249 c-18 -26 -21 -66 -7 -88 6 -8 33 -29 62 -46 66 -38 80
-59 57 -81 -14 -15 -21 -15 -48 -4 -17 7 -37 25 -45 41 -25 48 -35 44 -35 -13
0 -35 3 -48 9 -39 8 12 16 12 55 1 56 -15 91 -4 106 36 15 39 -6 73 -69 109
-61 36 -78 59 -61 81 21 24 47 16 84 -28 l36 -43 0 41 c0 37 -3 42 -22 43 -13
0 -42 3 -64 7 -36 5 -44 3 -58 -17z"/>
<path d="M5622 1248 c-19 -19 -22 -20 -22 -5 0 14 -9 17 -47 16 -27 -1 -40 -3
-30 -6 15 -4 17 -18 17 -114 0 -90 -3 -109 -15 -109 -8 0 -15 -4 -15 -10 0 -5
25 -10 55 -10 30 0 55 5 55 10 0 6 -4 10 -10 10 -6 0 -10 33 -10 80 0 91 18
140 50 140 19 0 20 -7 20 -110 0 -67 -4 -110 -10 -110 -5 0 -10 -4 -10 -10 0
-5 25 -10 55 -10 30 0 55 5 55 10 0 6 -7 10 -15 10 -12 0 -15 18 -15 98 0 72
-4 103 -16 120 -20 29 -63 29 -92 0z"/>
<path d="M5123 1253 c15 -4 17 -17 17 -97 0 -79 3 -97 21 -120 27 -34 63 -34
94 0 l25 27 0 -27 c0 -24 3 -26 39 -26 22 0 43 5 46 10 3 6 -1 10 -9 10 -14 0
-16 18 -16 115 l0 115 -52 -1 c-29 -1 -42 -4 -29 -6 23 -5 23 -7 19 -88 -5
-89 -26 -139 -56 -133 -15 3 -17 20 -20 116 l-3 112 -47 -1 c-26 -1 -39 -3
-29 -6z"/>
<path d="M1780 820 c0 -7 687 -10 2040 -10 1353 0 2040 3 2040 10 0 7 -687 10
-2040 10 -1353 0 -2040 -3 -2040 -10z"/>
<path d="M1805 665 c-54 -53 -21 -118 80 -158 70 -27 92 -62 61 -96 -43 -47
-103 -25 -140 51 l-25 53 0 -70 c0 -59 2 -67 13 -53 12 16 15 16 54 -3 68 -34
132 -3 132 64 0 47 -22 71 -87 97 -75 30 -83 37 -83 70 0 29 27 60 52 60 25 0
69 -41 85 -78 19 -46 27 -34 18 29 -4 30 -10 46 -15 39 -6 -9 -14 -8 -38 4
-44 23 -79 20 -107 -9z"/>
<path d="M2855 665 c-30 -29 -32 -73 -6 -107 11 -13 49 -37 84 -52 71 -30 87
-54 62 -92 -19 -29 -58 -35 -93 -14 -25 15 -46 48 -65 100 -3 8 -6 -16 -6 -55
0 -52 2 -65 10 -53 9 17 12 16 47 -2 49 -27 74 -25 111 6 23 19 31 34 31 58 0
46 -22 70 -87 96 -75 30 -83 37 -83 71 0 32 23 59 52 59 24 0 88 -61 88 -84 0
-9 3 -16 8 -16 4 0 5 23 3 51 -2 31 -6 47 -11 39 -7 -11 -15 -10 -43 3 -48 23
-74 21 -102 -8z"/>
<path d="M5416 669 c-40 -31 -56 -71 -56 -139 0 -89 34 -143 97 -156 25 -5 37
0 67 26 l36 32 0 -26 c0 -14 5 -26 10 -26 6 0 10 28 10 64 0 59 2 65 23 69 12
2 -12 4 -53 4 -41 0 -60 -2 -41 -4 33 -4 33 -5 28 -45 -10 -72 -59 -102 -104
-64 -22 19 -26 32 -30 97 -6 93 9 156 43 171 38 18 72 -4 97 -62 12 -27 25
-50 30 -50 4 0 7 27 7 60 0 55 -12 79 -23 48 -3 -10 -12 -9 -35 5 -40 23 -73
22 -106 -4z"/>
<path d="M5028 673 c20 -4 22 -10 22 -64 l0 -60 -22 15 c-12 9 -30 16 -38 16
-29 0 -62 -46 -67 -92 -8 -83 57 -138 109 -91 17 15 18 15 18 0 0 -13 8 -17
33 -16 17 1 24 3 15 6 -16 4 -18 20 -18 149 l0 144 -37 -1 c-24 -1 -29 -3 -15
-6z m-5 -118 c30 -30 33 -118 5 -152 -16 -20 -46 -15 -59 8 -15 29 -7 138 12
150 19 12 25 11 42 -6z"/>
<path d="M2085 660 c-4 -7 -3 -16 3 -22 14 -14 45 -2 40 15 -6 16 -34 21 -43
7z"/>
<path d="M2297 563 c-11 -11 -17 -13 -17 -5 0 7 -13 12 -32 11 -18 -1 -25 -3
-15 -6 15 -4 17 -19 17 -138 0 -119 -2 -134 -17 -138 -10 -3 5 -5 32 -5 28 0
42 2 33 5 -15 4 -18 16 -18 66 1 47 3 58 11 45 14 -25 61 -23 86 5 35 37 34
117 -2 152 -28 29 -54 32 -78 8z m60 -24 c28 -53 7 -149 -31 -149 -46 0 -65
121 -25 161 24 24 40 21 56 -12z"/>
<path d="M3152 564 c-25 -17 -29 -52 -7 -61 23 -8 31 5 17 27 -10 16 -9 21 7
30 11 5 22 10 25 10 13 0 36 -34 36 -55 0 -18 -7 -24 -37 -30 -63 -12 -75 -22
-71 -63 3 -34 6 -37 36 -40 21 -2 41 3 52 13 16 14 18 14 23 0 14 -35 69 -11
66 28 0 7 -4 2 -10 -11 -16 -40 -29 -13 -29 59 0 56 -4 73 -20 89 -24 24 -57
26 -88 4z m74 -116 c-8 -41 -25 -60 -50 -56 -31 4 -34 51 -4 72 12 9 31 16 41
16 16 0 19 -5 13 -32z"/>
<path d="M3638 555 c-64 -64 -30 -175 53 -175 50 0 79 35 79 96 0 87 -78 134
-132 79z m70 7 c30 -20 37 -125 9 -159 -18 -24 -54 -15 -67 17 -17 40 -7 120
16 137 21 15 25 16 42 5z"/>
<path d="M3932 558 c-19 -19 -22 -20 -22 -5 0 13 -8 17 -32 16 -18 -1 -25 -3
-15 -6 14 -4 17 -17 17 -88 0 -71 -3 -84 -17 -88 -10 -3 5 -5 32 -5 28 0 42 2
31 5 -16 4 -18 13 -14 73 2 49 9 74 22 89 26 29 40 26 32 -5 -6 -21 -4 -25 11
-22 22 4 30 38 11 49 -21 13 -32 11 -56 -13z"/>
<path d="M4432 564 c-15 -10 -22 -24 -20 -37 4 -25 38 -37 38 -13 0 9 -4 16
-10 16 -16 0 -11 27 6 34 9 3 19 6 24 6 17 0 40 -32 40 -55 0 -18 -7 -24 -37
-30 -63 -12 -75 -22 -71 -63 3 -34 6 -37 36 -40 21 -2 41 3 52 13 16 14 18 14
23 0 7 -17 42 -20 52 -5 4 6 1 9 -7 8 -10 -2 -14 18 -18 75 -4 63 -9 82 -24
93 -26 18 -56 18 -84 -2z m78 -99 c0 -9 -7 -30 -16 -46 -11 -22 -21 -29 -37
-27 -32 4 -35 51 -5 72 29 20 58 21 58 1z"/>
<path d="M4728 569 c-10 -5 -18 -15 -18 -20 0 -6 7 -3 16 5 39 40 64 3 64 -94
0 -46 -4 -61 -17 -69 -14 -8 -8 -10 27 -10 25 0 39 3 33 6 -9 3 -13 27 -13 71
0 37 -6 78 -13 92 -14 27 -51 36 -79 19z"/>
<path d="M5727 555 c-62 -63 -28 -175 54 -175 50 0 79 35 79 96 0 87 -78 134
-133 79z m78 1 c14 -10 18 -27 19 -73 1 -67 -13 -93 -49 -93 -18 0 -26 9 -35
36 -15 46 -7 114 16 131 22 16 26 16 49 -1z"/>
<path d="M2078 563 c8 -3 12 -31 12 -88 0 -71 -3 -84 -17 -88 -10 -3 5 -5 32
-5 28 0 42 2 33 5 -16 4 -18 17 -18 94 l0 89 -27 -1 c-16 0 -22 -3 -15 -6z"/>
<path d="M3361 560 c8 -5 30 -47 49 -94 19 -47 38 -86 42 -86 4 0 19 39 35 86
19 61 34 89 48 95 15 6 11 8 -20 8 -26 1 -35 -2 -27 -8 12 -7 11 -18 -4 -65
-10 -31 -21 -56 -25 -56 -4 0 -17 25 -29 56 -19 47 -21 57 -9 65 9 6 -1 9 -31
9 -32 -1 -40 -3 -29 -10z"/>
<path d="M4658 563 c8 -3 12 -31 12 -88 0 -71 -3 -84 -17 -88 -10 -3 5 -5 32
-5 28 0 42 2 32 5 -17 4 -19 14 -17 76 4 107 4 107 -27 106 -16 0 -22 -3 -15
-6z"/>
<path d="M2504 425 c-7 -18 3 -35 22 -35 19 0 18 -25 -3 -58 -16 -25 -16 -26
-1 -14 26 21 42 77 28 102 -12 23 -38 27 -46 5z"/>
<path d="M4091 426 c-10 -12 -7 -18 13 -31 25 -17 26 -32 2 -65 -6 -9 -1 -5
12 8 22 23 28 55 16 86 -8 20 -28 21 -43 2z"/>
</g>
</svg>
