<?xml version="1.0" standalone="no"?>
<!DOCTYPE svg PUBLIC "-//W3C//DTD SVG 20010904//EN"
 "http://www.w3.org/TR/2001/REC-SVG-20010904/DTD/svg10.dtd">
<svg version="1.0" xmlns="http://www.w3.org/2000/svg"
 width="604.000000pt" height="225.000000pt" viewBox="0 0 604.000000 225.000000"
 preserveAspectRatio="xMidYMid meet">

<g transform="translate(0.000000,225.000000) scale(0.100000,-0.100000)"
fill="#000000" stroke="none">
<path d="M70 1165 l0 -955 955 0 955 0 0 955 0 955 -955 0 -955 0 0 -955z
m1870 0 l0 -915 -915 0 -915 0 0 915 0 915 915 0 915 0 0 -915z"/>
<path d="M150 1160 l0 -880 880 0 880 0 0 880 0 880 -880 0 -880 0 0 -880z
m1720 5 l0 -845 -845 0 -845 0 0 845 0 845 845 0 845 0 0 -845z"/>
<path d="M470 1530 c8 -5 23 -10 33 -10 16 0 17 -23 17 -345 l0 -346 -30 -5
c-62 -13 -26 -24 75 -24 102 0 136 12 75 25 l-30 7 0 170 0 170 60 -4 c99 -7
114 -30 135 -213 13 -108 17 -122 40 -142 14 -13 39 -23 54 -23 28 0 87 37 77
48 -3 2 -12 -1 -21 -8 -29 -24 -42 5 -55 124 -15 141 -29 168 -107 203 l-57
26 47 14 c93 27 150 117 127 202 -14 52 -74 106 -141 125 -60 18 -326 23 -299
6z m267 -29 c55 -25 76 -67 77 -149 0 -96 -49 -149 -147 -159 l-57 -6 0 167 0
166 43 0 c23 0 61 -9 84 -19z"/>
<path d="M1050 1530 c8 -5 23 -10 33 -10 16 0 17 -23 17 -344 l0 -344 -30 -7
c-61 -13 -27 -25 75 -25 102 0 136 12 75 25 l-30 7 0 169 0 169 45 0 c60 0
103 -23 121 -65 8 -19 19 -81 25 -137 6 -57 15 -115 21 -129 17 -46 83 -63
126 -33 27 19 29 39 2 22 -13 -8 -23 -9 -29 -3 -5 6 -16 64 -24 131 -9 77 -20
130 -32 147 -9 15 -44 40 -77 56 l-60 28 39 6 c48 8 108 49 128 87 19 37 19
113 0 149 -22 43 -70 79 -127 96 -59 17 -324 22 -298 5z m253 -24 c60 -25 81
-59 85 -135 7 -111 -38 -167 -143 -178 l-55 -6 0 167 0 166 40 0 c22 0 55 -6
73 -14z"/>
<path d="M5503 1814 c-35 -18 -63 -67 -63 -111 0 -15 10 -48 21 -72 l20 -45
-33 -25 c-98 -75 -131 -140 -104 -204 29 -71 146 -91 249 -44 46 21 58 23 67
12 6 -7 26 -20 45 -29 30 -15 38 -15 69 -2 32 13 79 76 57 76 -6 0 -15 -9 -21
-20 -6 -11 -19 -20 -29 -20 -19 0 -75 56 -69 69 28 59 86 145 104 153 42 19
26 28 -51 28 -74 0 -99 -12 -50 -24 33 -8 33 -47 2 -99 l-23 -38 -64 96 -63
96 37 38 c52 53 59 104 21 149 -31 37 -69 42 -122 16z m97 -24 c31 -31 26 -74
-14 -117 l-34 -37 -21 34 c-28 47 -28 104 1 124 30 21 44 20 68 -4z m-32 -325
c34 -52 62 -99 62 -103 0 -14 -48 -32 -83 -32 -65 0 -106 45 -107 117 0 41 5
58 26 82 14 17 29 31 32 31 4 0 35 -43 70 -95z"/>
<path d="M2420 1806 c0 -12 10 -16 35 -16 l35 0 -2 -232 -3 -233 -32 -3 c-18
-2 -33 -7 -33 -13 0 -5 56 -9 130 -9 80 0 130 4 130 10 0 6 -18 10 -40 10
l-40 0 0 120 0 120 33 0 c56 0 71 -26 77 -135 6 -105 19 -130 76 -141 45 -8
72 2 89 36 17 33 20 110 5 110 -5 0 -10 -13 -10 -29 0 -41 -18 -83 -33 -79 -7
3 -15 35 -20 84 -9 97 -19 118 -70 143 l-40 20 42 17 c106 42 110 157 8 211
-25 13 -66 18 -184 21 -136 4 -153 2 -153 -12z m274 -38 c10 -14 16 -44 16
-78 0 -74 -18 -100 -71 -100 l-39 0 0 100 0 100 39 0 c30 0 44 -6 55 -22z"/>
<path d="M4646 1742 c-7 -47 -38 -90 -69 -94 -29 -4 -29 -22 1 -26 22 -3 22
-6 22 -143 0 -135 1 -141 25 -164 41 -41 115 -33 140 15 19 37 31 130 16 130
-6 0 -11 -7 -11 -15 0 -7 -5 -37 -11 -64 -8 -37 -16 -52 -31 -57 -39 -12 -48
18 -48 163 l0 133 40 0 c22 0 40 5 40 10 0 6 -18 10 -40 10 l-40 0 0 70 c0 53
-3 70 -14 70 -8 0 -16 -16 -20 -38z"/>
<path d="M3155 1619 c-93 -82 -86 -239 14 -306 96 -65 211 20 211 155 0 148
-129 235 -225 151z m116 -6 c10 -12 14 -50 14 -143 0 -137 -7 -160 -51 -160
-39 0 -49 33 -49 160 0 75 4 123 13 138 15 26 53 29 73 5z"/>
<path d="M3659 1627 c-57 -38 -50 -122 10 -115 20 2 27 9 29 29 2 14 -4 31
-12 39 -32 26 -13 50 39 50 31 0 46 -21 48 -71 l2 -42 -55 -22 c-79 -32 -120
-73 -120 -119 0 -74 76 -109 151 -70 28 14 32 14 48 0 44 -40 121 2 121 65 0
37 -10 32 -25 -14 -19 -59 -30 -29 -35 95 -3 73 -10 132 -18 145 -31 54 -124
70 -183 30z m121 -206 c0 -73 -14 -101 -49 -101 -28 0 -41 21 -41 68 0 51 13
80 43 92 44 18 47 13 47 -59z"/>
<path d="M4167 1639 c-27 -16 -48 -72 -41 -108 8 -38 38 -66 121 -111 49 -26
69 -43 71 -59 5 -31 -15 -51 -50 -51 -43 0 -63 14 -97 70 -17 27 -35 50 -41
50 -6 0 -10 -30 -10 -70 0 -73 4 -82 26 -53 11 16 16 17 46 4 18 -8 52 -16 75
-18 37 -4 46 -1 73 25 33 34 39 79 16 121 -8 14 -47 44 -87 67 -80 45 -111 83
-88 110 8 9 25 14 48 12 28 -2 42 -12 69 -48 19 -25 38 -46 43 -48 5 -2 9 21
9 52 0 56 -6 66 -27 45 -8 -8 -19 -6 -41 5 -35 18 -88 20 -115 5z"/>
<path d="M2420 1021 c0 -6 15 -11 33 -13 l32 -3 3 -232 2 -233 -36 0 c-24 0
-34 -4 -31 -12 5 -16 246 -19 250 -3 1 6 -15 11 -35 13 l-38 3 0 121 0 121 37
-6 c48 -8 63 -29 63 -88 0 -135 28 -189 99 -189 60 0 91 43 91 126 0 40 -17
27 -24 -18 -8 -54 -20 -73 -40 -65 -13 5 -16 21 -16 77 0 88 -16 121 -72 148
l-43 20 41 11 c58 16 89 52 89 106 0 51 -21 79 -80 106 -33 15 -66 19 -182 19
-83 0 -143 -4 -143 -9z m265 -36 c20 -20 25 -34 25 -78 0 -70 -26 -107 -76
-107 l-34 0 0 105 0 105 30 0 c19 0 40 -9 55 -25z"/>
<path d="M3804 860 c-12 -4 -31 -21 -43 -36 l-21 -27 0 32 0 31 -60 0 c-33 0
-60 -4 -60 -10 0 -5 9 -10 20 -10 19 0 20 -7 20 -151 0 -142 -1 -151 -20 -156
-11 -3 -20 -9 -20 -13 0 -10 149 -9 156 1 3 5 -5 9 -16 9 -22 0 -22 3 -19 118
3 96 8 123 25 152 14 25 27 35 45 35 l24 0 3 -152 c2 -141 1 -153 -15 -154
-10 -1 16 -5 57 -9 41 -4 79 -4 84 1 6 5 1 9 -12 9 -21 0 -22 3 -22 124 0 140
-9 175 -49 199 -32 19 -46 20 -77 7z"/>
<path d="M3065 850 c-3 -6 5 -10 19 -10 l24 0 4 -139 c3 -132 4 -141 27 -165
18 -19 34 -26 60 -26 39 1 58 12 84 50 l17 24 0 -37 0 -37 60 0 c58 0 80 12
40 23 -19 5 -20 14 -20 166 l0 161 -65 0 c-37 0 -65 -4 -65 -10 0 -5 11 -10
25 -10 l25 0 0 -101 c0 -112 -25 -193 -62 -205 -37 -11 -43 10 -46 171 l-4
155 -58 0 c-32 0 -62 -4 -65 -10z"/>
<path d="M2420 330 c0 -20 7 -20 1710 -20 1703 0 1710 0 1710 20 0 20 -7 20
-1710 20 -1703 0 -1710 0 -1710 -20z"/>
</g>
</svg>
